<svg width="313" height="60" viewBox="0 0 313 60" fill="none" xmlns="http://www.w3.org/2000/svg">
<path d="M18.8645 57C17.9779 57 17.2217 56.8298 16.5959 56.4894C15.97 56.1383 15.4381 55.6596 15 55.0532L15.97 54.2234C16.356 54.7447 16.7836 55.1436 17.253 55.4202C17.7224 55.6862 18.2752 55.8191 18.9115 55.8191C19.6937 55.8191 20.2883 55.6277 20.6951 55.2447C21.1123 54.8617 21.3209 54.3511 21.3209 53.7128C21.3209 53.1809 21.1645 52.7713 20.8515 52.484C20.5386 52.1968 20.0223 51.9681 19.3026 51.7979L18.4108 51.5904C17.4095 51.3564 16.6428 51.0053 16.1109 50.5372C15.5893 50.0585 15.3286 49.3883 15.3286 48.5266C15.3286 48.0372 15.4172 47.6011 15.5945 47.2181C15.7719 46.8351 16.017 46.516 16.3299 46.2606C16.6532 46.0053 17.034 45.8138 17.472 45.6862C17.9206 45.5479 18.4108 45.4787 18.9427 45.4787C19.7668 45.4787 20.4708 45.633 21.0549 45.9415C21.6495 46.25 22.1501 46.7021 22.5569 47.2979L21.5712 48.0319C21.2688 47.6064 20.9037 47.2713 20.476 47.0266C20.0484 46.7819 19.5164 46.6596 18.8802 46.6596C18.1813 46.6596 17.6285 46.8138 17.2217 47.1223C16.8253 47.4202 16.6272 47.8723 16.6272 48.4787C16.6272 49.0106 16.7941 49.4149 17.1278 49.6915C17.472 49.9574 17.9884 50.1702 18.6768 50.3298L19.5686 50.5372C20.6429 50.7819 21.42 51.1543 21.8998 51.6543C22.3796 52.1543 22.6195 52.8191 22.6195 53.6489C22.6195 54.1596 22.5309 54.6223 22.3535 55.0372C22.1866 55.4521 21.9415 55.8032 21.6182 56.0904C21.2948 56.3777 20.8985 56.6011 20.4291 56.7606C19.9702 56.9202 19.4486 57 18.8645 57Z" fill="#EDAF4F"/>
<path d="M27.8148 57C27.2724 57 26.7769 56.8989 26.3284 56.6968C25.8799 56.4947 25.494 56.2074 25.1706 55.8351C24.8577 55.4521 24.6126 55 24.4353 54.4787C24.258 53.9468 24.1693 53.3511 24.1693 52.6915C24.1693 52.0426 24.258 51.4521 24.4353 50.9202C24.6126 50.3883 24.8577 49.9362 25.1706 49.5638C25.494 49.1809 25.8799 48.8883 26.3284 48.6862C26.7769 48.484 27.2724 48.383 27.8148 48.383C28.3572 48.383 28.8474 48.484 29.2855 48.6862C29.734 48.8883 30.1199 49.1809 30.4433 49.5638C30.7666 49.9362 31.017 50.3883 31.1943 50.9202C31.3716 51.4521 31.4603 52.0426 31.4603 52.6915C31.4603 53.3511 31.3716 53.9468 31.1943 54.4787C31.017 55 30.7666 55.4521 30.4433 55.8351C30.1199 56.2074 29.734 56.4947 29.2855 56.6968C28.8474 56.8989 28.3572 57 27.8148 57ZM27.8148 55.867C28.4928 55.867 29.0456 55.6543 29.4732 55.2287C29.9009 54.8032 30.1147 54.1543 30.1147 53.2819V52.1011C30.1147 51.2287 29.9009 50.5798 29.4732 50.1543C29.0456 49.7287 28.4928 49.516 27.8148 49.516C27.1368 49.516 26.584 49.7287 26.1563 50.1543C25.7287 50.5798 25.5148 51.2287 25.5148 52.1011V53.2819C25.5148 54.1543 25.7287 54.8032 26.1563 55.2287C26.584 55.6543 27.1368 55.867 27.8148 55.867Z" fill="#EDAF4F"/>
<path d="M33.8652 49.6915H32.5509V48.5745H33.8652V46.9149C33.8652 46.3404 34.0112 45.8777 34.3033 45.5266C34.5953 45.1755 35.0386 45 35.6332 45H36.8535V46.117H35.1168V48.5745H36.8535V49.6915H35.1168V56.8085H33.8652V49.6915Z" fill="#EDAF4F"/>
<path d="M40.2834 56.8085C39.8453 56.8085 39.5115 56.6862 39.2821 56.4415C39.063 56.1862 38.9535 55.8564 38.9535 55.4521V49.6915H37.6236V48.5745H38.3746C38.6458 48.5745 38.8283 48.5213 38.9222 48.4149C39.0265 48.2979 39.0787 48.1011 39.0787 47.8245V46.2926H40.2052V48.5745H41.9731V49.6915H40.2052V55.6915H41.848V56.8085H40.2834Z" fill="#EDAF4F"/>
<path d="M43.1401 48.5745H44.3605L45.221 52.133L46.0815 55.7394H46.1128L47.0985 52.133L48.1155 48.5745H49.2263L50.2746 52.133L51.2759 55.7394H51.3072L52.1364 52.133L53.0126 48.5745H54.186L52.0426 56.8085H50.4936L49.3671 52.8511L48.6631 50.3457H48.6318L47.9434 52.8511L46.8169 56.8085H45.2992L43.1401 48.5745Z" fill="#EDAF4F"/>
<path d="M61.724 56.8085C61.2547 56.8085 60.9157 56.6809 60.7071 56.4255C60.5089 56.1702 60.3837 55.8511 60.3316 55.4681H60.2533C60.076 55.9787 59.7839 56.3617 59.3772 56.617C58.9704 56.8723 58.4853 57 57.9221 57C57.0668 57 56.3992 56.7766 55.9194 56.3298C55.4501 55.883 55.2154 55.2766 55.2154 54.5106C55.2154 53.734 55.4918 53.1383 56.0446 52.7234C56.6078 52.3085 57.4788 52.1011 58.6574 52.1011H60.2533V51.2872C60.2533 50.7021 60.0969 50.2553 59.7839 49.9468C59.471 49.6383 58.9912 49.484 58.3445 49.484C57.8543 49.484 57.4423 49.5957 57.1085 49.8191C56.7852 50.0426 56.514 50.3404 56.2949 50.7128L55.5439 49.9947C55.763 49.5479 56.1124 49.1702 56.5922 48.8617C57.072 48.5426 57.677 48.383 58.4071 48.383C59.3876 48.383 60.149 48.6277 60.6914 49.117C61.2338 49.6064 61.505 50.2872 61.505 51.1596V55.6915H62.4281V56.8085H61.724ZM58.1255 55.9149C58.4384 55.9149 58.7252 55.8777 58.986 55.8032C59.2468 55.7287 59.471 55.6223 59.6588 55.484C59.8465 55.3457 59.9926 55.1862 60.0969 55.0053C60.2012 54.8245 60.2533 54.6277 60.2533 54.4149V53.0585H58.5949C57.8752 53.0585 57.3484 53.1649 57.0146 53.3777C56.6913 53.5904 56.5296 53.8989 56.5296 54.3032V54.6383C56.5296 55.0426 56.6704 55.3564 56.9521 55.5798C57.2441 55.8032 57.6353 55.9149 58.1255 55.9149Z" fill="#EDAF4F"/>
<path d="M64.2145 56.8085V48.5745H65.4662V50.0904H65.5444C65.6904 49.6968 65.9512 49.3457 66.3267 49.0372C66.7022 48.7287 67.2185 48.5745 67.8756 48.5745H68.3607V49.8511H67.6253C66.9473 49.8511 66.4154 49.984 66.0294 50.25C65.6539 50.5053 65.4662 50.8298 65.4662 51.2234V56.8085H64.2145Z" fill="#EDAF4F"/>
<path d="M72.9184 57C72.3655 57 71.8649 56.8989 71.4164 56.6968C70.9783 56.4947 70.5976 56.2074 70.2742 55.8351C69.9613 55.4521 69.7162 55 69.5389 54.4787C69.372 53.9468 69.2885 53.3511 69.2885 52.6915C69.2885 52.0426 69.372 51.4521 69.5389 50.9202C69.7162 50.3883 69.9613 49.9362 70.2742 49.5638C70.5976 49.1809 70.9783 48.8883 71.4164 48.6862C71.8649 48.484 72.3655 48.383 72.9184 48.383C73.4608 48.383 73.9458 48.484 74.3734 48.6862C74.8011 48.8883 75.1661 49.1702 75.4686 49.5319C75.7711 49.883 76.0006 50.3032 76.1571 50.7926C76.3239 51.2819 76.4074 51.8191 76.4074 52.4043V53.0106H70.6028V53.3936C70.6028 53.7447 70.6549 54.0745 70.7592 54.383C70.874 54.6809 71.0304 54.9415 71.2286 55.1649C71.4372 55.3883 71.6876 55.5638 71.9796 55.6915C72.2821 55.8191 72.6211 55.883 72.9966 55.883C73.5077 55.883 73.951 55.7606 74.3265 55.516C74.7124 55.2713 75.0097 54.9202 75.2183 54.4628L76.1101 55.117C75.8493 55.6809 75.4426 56.1383 74.8897 56.4894C74.3369 56.8298 73.6798 57 72.9184 57ZM72.9184 49.4521C72.5742 49.4521 72.2612 49.516 71.9796 49.6436C71.698 49.7606 71.4529 49.9309 71.2443 50.1543C71.0461 50.3777 70.8896 50.6436 70.7749 50.9521C70.6602 51.25 70.6028 51.5798 70.6028 51.9415V52.0532H75.0618V51.8777C75.0618 51.1436 74.8637 50.5585 74.4673 50.1223C74.0814 49.6755 73.5651 49.4521 72.9184 49.4521Z" fill="#EDAF4F"/>
<path d="M82.2927 45.6702H85.9538C86.6318 45.6702 87.2472 45.7872 87.8 46.0213C88.3528 46.2553 88.8222 46.6064 89.2081 47.0745C89.6045 47.5319 89.907 48.1117 90.1156 48.8138C90.3242 49.5053 90.4285 50.3138 90.4285 51.2394C90.4285 52.1649 90.3242 52.9787 90.1156 53.6809C89.907 54.3723 89.6045 54.9521 89.2081 55.4202C88.8222 55.8777 88.3528 56.2234 87.8 56.4574C87.2472 56.6915 86.6318 56.8085 85.9538 56.8085H82.2927V45.6702ZM85.9538 55.6277C86.4023 55.6277 86.8143 55.5532 87.1898 55.4043C87.5653 55.2447 87.8886 55.016 88.1598 54.7181C88.431 54.4202 88.6396 54.0585 88.7857 53.633C88.9421 53.1968 89.0204 52.7021 89.0204 52.1489V50.3298C89.0204 49.7766 88.9421 49.2872 88.7857 48.8617C88.6396 48.4255 88.431 48.0585 88.1598 47.7606C87.8886 47.4628 87.5653 47.2394 87.1898 47.0904C86.8143 46.9309 86.4023 46.8511 85.9538 46.8511H83.6069V55.6277H85.9538Z" fill="#EDAF4F"/>
<path d="M95.6995 57C95.1467 57 94.646 56.8989 94.1975 56.6968C93.7595 56.4947 93.3787 56.2074 93.0554 55.8351C92.7425 55.4521 92.4974 55 92.32 54.4787C92.1532 53.9468 92.0697 53.3511 92.0697 52.6915C92.0697 52.0426 92.1532 51.4521 92.32 50.9202C92.4974 50.3883 92.7425 49.9362 93.0554 49.5638C93.3787 49.1809 93.7595 48.8883 94.1975 48.6862C94.646 48.484 95.1467 48.383 95.6995 48.383C96.2419 48.383 96.7269 48.484 97.1546 48.6862C97.5822 48.8883 97.9473 49.1702 98.2498 49.5319C98.5523 49.883 98.7818 50.3032 98.9382 50.7926C99.1051 51.2819 99.1885 51.8191 99.1885 52.4043V53.0106H93.3839V53.3936C93.3839 53.7447 93.4361 54.0745 93.5404 54.383C93.6551 54.6809 93.8116 54.9415 94.0098 55.1649C94.2184 55.3883 94.4687 55.5638 94.7608 55.6915C95.0633 55.8191 95.4023 55.883 95.7778 55.883C96.2889 55.883 96.7322 55.7606 97.1077 55.516C97.4936 55.2713 97.7909 54.9202 97.9995 54.4628L98.8913 55.117C98.6305 55.6809 98.2237 56.1383 97.6709 56.4894C97.1181 56.8298 96.461 57 95.6995 57ZM95.6995 49.4521C95.3553 49.4521 95.0424 49.516 94.7608 49.6436C94.4792 49.7606 94.234 49.9309 94.0254 50.1543C93.8272 50.3777 93.6708 50.6436 93.5561 50.9521C93.4413 51.25 93.3839 51.5798 93.3839 51.9415V52.0532H97.843V51.8777C97.843 51.1436 97.6448 50.5585 97.2485 50.1223C96.8625 49.6755 96.3462 49.4521 95.6995 49.4521Z" fill="#EDAF4F"/>
<path d="M102.912 56.8085L100.081 48.5745H101.332L102.74 52.6596L103.617 55.4681H103.695L104.571 52.6596L106.01 48.5745H107.215L104.368 56.8085H102.912Z" fill="#EDAF4F"/>
<path d="M111.743 57C111.19 57 110.689 56.8989 110.241 56.6968C109.803 56.4947 109.422 56.2074 109.098 55.8351C108.786 55.4521 108.54 55 108.363 54.4787C108.196 53.9468 108.113 53.3511 108.113 52.6915C108.113 52.0426 108.196 51.4521 108.363 50.9202C108.54 50.3883 108.786 49.9362 109.098 49.5638C109.422 49.1809 109.803 48.8883 110.241 48.6862C110.689 48.484 111.19 48.383 111.743 48.383C112.285 48.383 112.77 48.484 113.198 48.6862C113.625 48.8883 113.99 49.1702 114.293 49.5319C114.595 49.883 114.825 50.3032 114.981 50.7926C115.148 51.2819 115.232 51.8191 115.232 52.4043V53.0106H109.427V53.3936C109.427 53.7447 109.479 54.0745 109.583 54.383C109.698 54.6809 109.855 54.9415 110.053 55.1649C110.261 55.3883 110.512 55.5638 110.804 55.6915C111.106 55.8191 111.445 55.883 111.821 55.883C112.332 55.883 112.775 55.7606 113.151 55.516C113.537 55.2713 113.834 54.9202 114.043 54.4628L114.934 55.117C114.674 55.6809 114.267 56.1383 113.714 56.4894C113.161 56.8298 112.504 57 111.743 57ZM111.743 49.4521C111.398 49.4521 111.085 49.516 110.804 49.6436C110.522 49.7606 110.277 49.9309 110.069 50.1543C109.87 50.3777 109.714 50.6436 109.599 50.9521C109.484 51.25 109.427 51.5798 109.427 51.9415V52.0532H113.886V51.8777C113.886 51.1436 113.688 50.5585 113.292 50.1223C112.906 49.6755 112.389 49.4521 111.743 49.4521Z" fill="#EDAF4F"/>
<path d="M118.624 56.8085C118.186 56.8085 117.852 56.6862 117.623 56.4415C117.404 56.1862 117.294 55.867 117.294 55.484V45H118.546V55.6915H119.735V56.8085H118.624Z" fill="#EDAF4F"/>
<path d="M124.608 57C124.066 57 123.57 56.8989 123.122 56.6968C122.673 56.4947 122.287 56.2074 121.964 55.8351C121.651 55.4521 121.406 55 121.228 54.4787C121.051 53.9468 120.963 53.3511 120.963 52.6915C120.963 52.0426 121.051 51.4521 121.228 50.9202C121.406 50.3883 121.651 49.9362 121.964 49.5638C122.287 49.1809 122.673 48.8883 123.122 48.6862C123.57 48.484 124.066 48.383 124.608 48.383C125.15 48.383 125.641 48.484 126.079 48.6862C126.527 48.8883 126.913 49.1809 127.236 49.5638C127.56 49.9362 127.81 50.3883 127.987 50.9202C128.165 51.4521 128.253 52.0426 128.253 52.6915C128.253 53.3511 128.165 53.9468 127.987 54.4787C127.81 55 127.56 55.4521 127.236 55.8351C126.913 56.2074 126.527 56.4947 126.079 56.6968C125.641 56.8989 125.15 57 124.608 57ZM124.608 55.867C125.286 55.867 125.839 55.6543 126.266 55.2287C126.694 54.8032 126.908 54.1543 126.908 53.2819V52.1011C126.908 51.2287 126.694 50.5798 126.266 50.1543C125.839 49.7287 125.286 49.516 124.608 49.516C123.93 49.516 123.377 49.7287 122.95 50.1543C122.522 50.5798 122.308 51.2287 122.308 52.1011V53.2819C122.308 54.1543 122.522 54.8032 122.95 55.2287C123.377 55.6543 123.93 55.867 124.608 55.867Z" fill="#EDAF4F"/>
<path d="M130.312 48.5745H131.564V49.9149H131.626C131.835 49.3936 132.137 49.0106 132.534 48.766C132.94 48.5106 133.426 48.383 133.989 48.383C134.489 48.383 134.943 48.484 135.35 48.6862C135.757 48.8883 136.101 49.1755 136.383 49.5479C136.675 49.9202 136.894 50.3723 137.04 50.9043C137.196 51.4362 137.274 52.0319 137.274 52.6915C137.274 53.3511 137.196 53.9468 137.04 54.4787C136.894 55.0106 136.675 55.4628 136.383 55.8351C136.101 56.2074 135.757 56.4947 135.35 56.6968C134.943 56.8989 134.489 57 133.989 57C132.894 57 132.106 56.4894 131.626 55.4681H131.564V60H130.312V48.5745ZM133.645 55.8511C134.354 55.8511 134.912 55.6277 135.319 55.1809C135.725 54.7234 135.929 54.1277 135.929 53.3936V51.9894C135.929 51.2553 135.725 50.6649 135.319 50.2181C134.912 49.7606 134.354 49.5319 133.645 49.5319C133.363 49.5319 133.092 49.5745 132.831 49.6596C132.581 49.734 132.362 49.8404 132.174 49.9787C131.986 50.117 131.835 50.2872 131.72 50.4894C131.616 50.6809 131.564 50.8883 131.564 51.1117V54.1755C131.564 54.4415 131.616 54.6809 131.72 54.8936C131.835 55.0957 131.986 55.2713 132.174 55.4202C132.362 55.5585 132.581 55.6649 132.831 55.7394C133.092 55.8138 133.363 55.8511 133.645 55.8511Z" fill="#EDAF4F"/>
<path d="M139.388 56.8085V48.5745H140.639V49.9149H140.702C140.796 49.7021 140.9 49.5053 141.015 49.3245C141.14 49.133 141.286 48.9681 141.453 48.8298C141.63 48.6915 141.834 48.5851 142.063 48.5106C142.293 48.4255 142.564 48.383 142.877 48.383C143.409 48.383 143.899 48.516 144.348 48.7819C144.796 49.0372 145.13 49.4628 145.349 50.0585H145.38C145.526 49.6117 145.797 49.2234 146.194 48.8936C146.601 48.5532 147.148 48.383 147.837 48.383C148.661 48.383 149.302 48.6596 149.761 49.2128C150.23 49.7553 150.465 50.5266 150.465 51.5266V56.8085H149.213V51.75C149.213 51.016 149.073 50.4628 148.791 50.0904C148.509 49.7181 148.061 49.5319 147.445 49.5319C147.195 49.5319 146.955 49.5638 146.726 49.6277C146.507 49.6915 146.308 49.7872 146.131 49.9149C145.954 50.0426 145.813 50.2074 145.709 50.4096C145.604 50.6011 145.552 50.8298 145.552 51.0957V56.8085H144.301V51.75C144.301 51.016 144.16 50.4628 143.878 50.0904C143.597 49.7181 143.158 49.5319 142.564 49.5319C142.314 49.5319 142.074 49.5638 141.844 49.6277C141.615 49.6915 141.411 49.7872 141.234 49.9149C141.057 50.0426 140.911 50.2074 140.796 50.4096C140.692 50.6011 140.639 50.8298 140.639 51.0957V56.8085H139.388Z" fill="#EDAF4F"/>
<path d="M156.083 57C155.53 57 155.029 56.8989 154.581 56.6968C154.143 56.4947 153.762 56.2074 153.438 55.8351C153.126 55.4521 152.88 55 152.703 54.4787C152.536 53.9468 152.453 53.3511 152.453 52.6915C152.453 52.0426 152.536 51.4521 152.703 50.9202C152.88 50.3883 153.126 49.9362 153.438 49.5638C153.762 49.1809 154.143 48.8883 154.581 48.6862C155.029 48.484 155.53 48.383 156.083 48.383C156.625 48.383 157.11 48.484 157.538 48.6862C157.965 48.8883 158.33 49.1702 158.633 49.5319C158.935 49.883 159.165 50.3032 159.321 50.7926C159.488 51.2819 159.572 51.8191 159.572 52.4043V53.0106H153.767V53.3936C153.767 53.7447 153.819 54.0745 153.923 54.383C154.038 54.6809 154.195 54.9415 154.393 55.1649C154.601 55.3883 154.852 55.5638 155.144 55.6915C155.446 55.8191 155.785 55.883 156.161 55.883C156.672 55.883 157.115 55.7606 157.491 55.516C157.877 55.2713 158.174 54.9202 158.383 54.4628L159.274 55.117C159.014 55.6809 158.607 56.1383 158.054 56.4894C157.501 56.8298 156.844 57 156.083 57ZM156.083 49.4521C155.738 49.4521 155.425 49.516 155.144 49.6436C154.862 49.7606 154.617 49.9309 154.408 50.1543C154.21 50.3777 154.054 50.6436 153.939 50.9521C153.824 51.25 153.767 51.5798 153.767 51.9415V52.0532H158.226V51.8777C158.226 51.1436 158.028 50.5585 157.632 50.1223C157.246 49.6755 156.729 49.4521 156.083 49.4521Z" fill="#EDAF4F"/>
<path d="M161.634 56.8085V48.5745H162.886V49.9149H162.948C163.147 49.4468 163.423 49.0745 163.778 48.7979C164.143 48.5213 164.628 48.383 165.233 48.383C166.067 48.383 166.724 48.6596 167.204 49.2128C167.694 49.7553 167.939 50.5266 167.939 51.5266V56.8085H166.688V51.75C166.688 50.2713 166.078 49.5319 164.857 49.5319C164.607 49.5319 164.362 49.5638 164.122 49.6277C163.892 49.6915 163.684 49.7872 163.496 49.9149C163.308 50.0426 163.157 50.2074 163.042 50.4096C162.938 50.6011 162.886 50.8298 162.886 51.0957V56.8085H161.634Z" fill="#EDAF4F"/>
<path d="M172.31 56.8085C171.872 56.8085 171.538 56.6862 171.309 56.4415C171.09 56.1862 170.98 55.8564 170.98 55.4521V49.6915H169.65V48.5745H170.401C170.673 48.5745 170.855 48.5213 170.949 48.4149C171.053 48.2979 171.106 48.1011 171.106 47.8245V46.2926H172.232V48.5745H174V49.6915H172.232V55.6915H173.875V56.8085H172.31Z" fill="#EDAF4F"/>
<path d="M19.3316 19.1389H20.5803C21.0824 19.1389 21.4986 19.0712 21.829 18.9358C22.1593 18.7869 22.4434 18.5567 22.6812 18.2453L30.5895 7.99012C30.9198 7.5569 31.2634 7.25906 31.6201 7.0966C31.9901 6.9206 32.4526 6.8326 33.0075 6.8326L36.5133 7.0966L27.9534 19.0373C27.3852 19.7819 26.7972 20.3099 26.1894 20.6213C26.6254 20.7838 27.0152 21.0139 27.3588 21.3117C27.7156 21.596 28.0525 21.9751 28.3696 22.449L38.3193 36.197H33.622C32.9877 36.197 32.512 36.109 32.1949 35.933C31.891 35.7435 31.6333 35.4727 31.4219 35.1207L23.3155 24.2766C23.0644 23.9111 22.7737 23.6539 22.4434 23.5049C22.1131 23.356 21.6374 23.2816 21.0163 23.2816H19.3316V36.197H14V6.8326H19.3316V19.1389Z" fill="white"/>
<path d="M52.0324 23.3831C52.0324 22.7333 51.9399 22.124 51.755 21.5554C51.5832 20.9733 51.3189 20.4656 50.9621 20.0324C50.6054 19.5992 50.1495 19.2607 49.5946 19.017C49.0528 18.7598 48.4186 18.6312 47.6918 18.6312C46.278 18.6312 45.1614 19.0441 44.3422 19.8699C43.5362 20.6958 43.0209 21.8668 42.7962 23.3831H52.0324ZM42.6971 26.4089C42.7764 27.4784 42.9614 28.4058 43.2521 29.191C43.5428 29.9627 43.926 30.6057 44.4017 31.1202C44.8773 31.6211 45.4389 32.0002 46.0864 32.2574C46.7471 32.5011 47.4738 32.6229 48.2666 32.6229C49.0594 32.6229 49.7399 32.5282 50.3081 32.3386C50.8895 32.1491 51.3916 31.9393 51.8144 31.7091C52.2505 31.479 52.627 31.2691 52.9442 31.0796C53.2745 30.89 53.5916 30.7953 53.8955 30.7953C54.3051 30.7953 54.6091 30.951 54.8073 31.2623L56.2145 33.09C55.6727 33.7398 55.0649 34.2881 54.391 34.7349C53.7171 35.1681 53.0102 35.5201 52.2703 35.7909C51.5435 36.0481 50.797 36.2309 50.0306 36.3392C49.2774 36.4475 48.5441 36.5016 47.8306 36.5016C46.4167 36.5016 45.102 36.2647 43.8863 35.7909C42.6707 35.3035 41.6136 34.5928 40.7151 33.6586C39.8166 32.7109 39.1097 31.5466 38.5944 30.1658C38.079 28.7713 37.8214 27.1603 37.8214 25.3326C37.8214 23.9111 38.046 22.5776 38.4953 21.3321C38.9445 20.073 39.5854 18.9832 40.4178 18.0626C41.2635 17.1284 42.2875 16.3906 43.4899 15.8491C44.7056 15.3075 46.0732 15.0368 47.5927 15.0368C48.8744 15.0368 50.057 15.2466 51.1405 15.6663C52.224 16.086 53.1556 16.702 53.9352 17.5143C54.7148 18.313 55.3226 19.3013 55.7586 20.4791C56.2079 21.6434 56.4325 22.9769 56.4325 24.4797C56.4325 25.2378 56.3532 25.7523 56.1947 26.0231C56.0361 26.2803 55.7322 26.4089 55.2829 26.4089H42.6971Z" fill="white"/>
<path d="M77.9368 15.3617L69.87 36.197H65.4302L57.3634 15.3617H61.4068C61.7767 15.3617 62.0806 15.4497 62.3185 15.6257C62.5695 15.8017 62.7347 16.0251 62.814 16.2958L66.7384 27.4243C66.9498 28.0741 67.1348 28.7104 67.2933 29.3331C67.4519 29.9559 67.5907 30.5787 67.7096 31.2014C67.8417 30.5787 67.987 29.9559 68.1456 29.3331C68.3042 28.7104 68.4958 28.0741 68.7204 27.4243L72.7241 16.2958C72.8166 16.0251 72.9817 15.8017 73.2196 15.6257C73.4574 15.4497 73.7415 15.3617 74.0718 15.3617H77.9368Z" fill="white"/>
<path d="M99.0183 15.3617L87.9388 41.9237C87.7935 42.2757 87.6019 42.5397 87.3641 42.7157C87.1394 42.9052 86.7893 43 86.3136 43H82.6667L86.4722 34.6334L78.2468 15.3617H82.5478C82.9309 15.3617 83.2282 15.4565 83.4397 15.646C83.6643 15.8355 83.8295 16.0521 83.9352 16.2958L88.256 27.0993C88.4013 27.4649 88.5202 27.8304 88.6127 28.1959C88.7184 28.5615 88.8175 28.9338 88.91 29.3128C89.029 28.9338 89.1479 28.5615 89.2668 28.1959C89.3857 27.8169 89.5178 27.4446 89.6632 27.079L93.7461 16.2958C93.8519 16.0251 94.0236 15.8017 94.2615 15.6257C94.5125 15.4497 94.79 15.3617 95.0939 15.3617H99.0183Z" fill="white"/>
<path d="M115.398 19.7684C115.253 19.9579 115.108 20.1068 114.962 20.2151C114.83 20.3235 114.632 20.3776 114.368 20.3776C114.117 20.3776 113.872 20.3031 113.634 20.1542C113.397 19.9918 113.113 19.8158 112.782 19.6262C112.452 19.4232 112.055 19.2472 111.593 19.0982C111.144 18.9358 110.582 18.8546 109.908 18.8546C109.049 18.8546 108.296 19.017 107.649 19.3419C107.001 19.6533 106.46 20.1068 106.023 20.7025C105.601 21.2982 105.284 22.0225 105.072 22.8754C104.861 23.7148 104.755 24.6692 104.755 25.7387C104.755 26.8489 104.867 27.8372 105.092 28.7036C105.33 29.5701 105.667 30.3011 106.103 30.8968C106.539 31.479 107.067 31.9257 107.688 32.2371C108.309 32.5349 109.01 32.6839 109.789 32.6839C110.569 32.6839 111.197 32.5891 111.672 32.3996C112.161 32.1965 112.571 31.9799 112.901 31.7497C113.231 31.506 113.516 31.2894 113.753 31.0999C114.004 30.8968 114.282 30.7953 114.586 30.7953C114.982 30.7953 115.28 30.951 115.478 31.2623L116.885 33.09C116.343 33.7398 115.755 34.2881 115.121 34.7349C114.487 35.1681 113.826 35.5201 113.139 35.7909C112.465 36.0481 111.765 36.2309 111.038 36.3392C110.324 36.4475 109.611 36.5016 108.897 36.5016C107.642 36.5016 106.46 36.2647 105.35 35.7909C104.24 35.3035 103.269 34.5995 102.436 33.6789C101.604 32.7583 100.943 31.6347 100.454 30.3079C99.9784 28.9676 99.7405 27.4446 99.7405 25.7387C99.7405 24.2089 99.9519 22.7942 100.375 21.4945C100.811 20.1813 101.445 19.0509 102.278 18.1032C103.11 17.142 104.141 16.3906 105.369 15.8491C106.598 15.3075 108.012 15.0368 109.611 15.0368C111.131 15.0368 112.458 15.2872 113.595 15.7881C114.744 16.2891 115.775 17.0066 116.687 17.9407L115.398 19.7684Z" fill="white"/>
<path d="M124.85 17.5955C125.642 16.8374 126.514 16.2214 127.466 15.7475C128.417 15.2737 129.534 15.0368 130.815 15.0368C131.925 15.0368 132.91 15.2331 133.769 15.6257C134.628 16.0048 135.341 16.5463 135.909 17.2503C136.491 17.9407 136.927 18.7733 137.217 19.7481C137.521 20.7093 137.673 21.772 137.673 22.9363V36.197H132.778V22.9363C132.778 21.6637 132.494 20.6822 131.925 19.9918C131.357 19.2878 130.492 18.9358 129.329 18.9358C128.483 18.9358 127.69 19.1321 126.951 19.5247C126.211 19.9173 125.51 20.4521 124.85 21.129V36.197H119.954V6.02031H124.85V17.5955Z" fill="white"/>
<path d="M168.003 12.1734C167.844 12.4577 167.672 12.6676 167.487 12.803C167.316 12.9248 167.098 12.9857 166.833 12.9857C166.556 12.9857 166.252 12.8842 165.922 12.6811C165.604 12.4645 165.221 12.2276 164.772 11.9704C164.323 11.7131 163.794 11.483 163.186 11.2799C162.592 11.0633 161.885 10.955 161.066 10.955C160.326 10.955 159.678 11.0498 159.123 11.2393C158.568 11.4153 158.099 11.6658 157.716 11.9907C157.346 12.3156 157.069 12.7082 156.884 13.1685C156.699 13.6153 156.606 14.1094 156.606 14.6509C156.606 15.3414 156.791 15.9168 157.161 16.3771C157.544 16.8374 158.046 17.23 158.667 17.5549C159.288 17.8798 159.995 18.1709 160.788 18.4281C161.581 18.6853 162.394 18.9629 163.226 19.2607C164.059 19.545 164.871 19.8835 165.664 20.2761C166.457 20.6551 167.164 21.1425 167.785 21.7382C168.406 22.3203 168.901 23.0379 169.271 23.8908C169.654 24.7437 169.846 25.7794 169.846 26.9978C169.846 28.3246 169.621 29.5701 169.172 30.7344C168.736 31.8851 168.089 32.8937 167.23 33.7602C166.384 34.6131 165.347 35.29 164.118 35.7909C162.889 36.2783 161.482 36.522 159.896 36.522C158.985 36.522 158.086 36.4272 157.201 36.2376C156.315 36.0617 155.463 35.8044 154.644 35.466C153.838 35.1275 153.078 34.7214 152.365 34.2475C151.651 33.7737 151.017 33.2457 150.462 32.6636L152.028 30.0439C152.16 29.8544 152.332 29.6987 152.543 29.5768C152.754 29.4415 152.979 29.3738 153.217 29.3738C153.547 29.3738 153.904 29.5159 154.287 29.8002C154.67 30.071 155.126 30.3756 155.655 30.7141C156.183 31.0525 156.798 31.3639 157.498 31.6482C158.212 31.919 159.064 32.0543 160.055 32.0543C161.574 32.0543 162.75 31.6888 163.583 30.9577C164.415 30.2131 164.831 29.1504 164.831 27.7695C164.831 26.9978 164.64 26.3683 164.257 25.8809C163.887 25.3935 163.391 24.9874 162.77 24.6625C162.149 24.324 161.442 24.0397 160.649 23.8095C159.857 23.5794 159.051 23.3289 158.231 23.0582C157.412 22.7874 156.606 22.4625 155.813 22.0834C155.021 21.7044 154.314 21.2102 153.693 20.601C153.072 19.9918 152.569 19.2336 152.186 18.3266C151.816 17.406 151.631 16.2755 151.631 14.9352C151.631 13.8657 151.836 12.8233 152.246 11.8079C152.669 10.7925 153.276 9.89224 154.069 9.10702C154.862 8.32181 155.84 7.69228 157.003 7.21844C158.165 6.7446 159.5 6.50769 161.006 6.50769C162.698 6.50769 164.257 6.77845 165.684 7.31998C167.111 7.86151 168.326 8.61965 169.331 9.5944L168.003 12.1734Z" fill="white"/>
<path d="M182.645 15.0368C184.151 15.0368 185.519 15.2872 186.748 15.7881C187.99 16.2891 189.047 16.9998 189.919 17.9204C190.804 18.841 191.485 19.9647 191.96 21.2914C192.436 22.6182 192.674 24.1006 192.674 25.7387C192.674 27.3904 192.436 28.8796 191.96 30.2064C191.485 31.5331 190.804 32.6636 189.919 33.5977C189.047 34.5318 187.99 35.2494 186.748 35.7503C185.519 36.2512 184.151 36.5016 182.645 36.5016C181.125 36.5016 179.745 36.2512 178.502 35.7503C177.26 35.2494 176.197 34.5318 175.311 33.5977C174.439 32.6636 173.759 31.5331 173.27 30.2064C172.794 28.8796 172.556 27.3904 172.556 25.7387C172.556 24.1006 172.794 22.6182 173.27 21.2914C173.759 19.9647 174.439 18.841 175.311 17.9204C176.197 16.9998 177.26 16.2891 178.502 15.7881C179.745 15.2872 181.125 15.0368 182.645 15.0368ZM182.645 32.6432C184.336 32.6432 185.585 32.0611 186.391 30.8968C187.21 29.7325 187.62 28.0267 187.62 25.7794C187.62 23.532 187.21 21.8194 186.391 20.6416C185.585 19.4638 184.336 18.8749 182.645 18.8749C180.927 18.8749 179.652 19.4705 178.82 20.6619C178 21.8397 177.591 23.5456 177.591 25.7794C177.591 28.0132 178 29.719 178.82 30.8968C179.652 32.0611 180.927 32.6432 182.645 32.6432Z" fill="white"/>
<path d="M201.364 6.02031V36.197H196.468V6.02031H201.364Z" fill="white"/>
<path d="M223.762 15.3617V36.197H220.77C220.122 36.197 219.713 35.8924 219.541 35.2832L219.204 33.618C218.371 34.4844 217.453 35.1884 216.449 35.73C215.445 36.258 214.262 36.522 212.901 36.522C211.791 36.522 210.807 36.3324 209.948 35.9533C209.102 35.5607 208.389 35.0124 207.807 34.3085C207.226 33.6045 206.783 32.7719 206.479 31.8106C206.189 30.8359 206.043 29.7664 206.043 28.6021V15.3617H210.939V28.6021C210.939 29.8747 211.223 30.863 211.791 31.567C212.372 32.2574 213.238 32.6026 214.388 32.6026C215.233 32.6026 216.026 32.4131 216.766 32.034C217.506 31.6414 218.206 31.1067 218.867 30.4297V15.3617H223.762Z" fill="white"/>
<path d="M249.13 36.197H244.235V19.1186H234.8V30.4094C234.8 31.0593 234.952 31.567 235.256 31.9325C235.573 32.298 236.003 32.4808 236.545 32.4808C236.849 32.4808 237.1 32.4469 237.298 32.3793C237.509 32.298 237.688 32.2168 237.833 32.1356C237.991 32.0543 238.13 31.9799 238.249 31.9122C238.368 31.831 238.487 31.7903 238.606 31.7903C238.751 31.7903 238.87 31.831 238.963 31.9122C239.055 31.9799 239.154 32.0882 239.26 32.2371L240.727 34.674C240.013 35.2832 239.194 35.7435 238.269 36.0549C237.344 36.3663 236.386 36.522 235.395 36.522C233.624 36.522 232.263 36.0143 231.312 34.9989C230.374 33.97 229.905 32.5553 229.905 30.7547V19.1186H227.824C227.559 19.1186 227.335 19.0306 227.15 18.8546C226.965 18.6786 226.872 18.4146 226.872 18.0626V16.0724L230.143 15.5038L231.173 9.83809C231.239 9.56733 231.365 9.35748 231.55 9.20856C231.735 9.05964 231.973 8.98518 232.263 8.98518H234.8V15.5445H249.13V36.197ZM249.983 9.20856C249.983 9.64179 249.897 10.0547 249.725 10.4473C249.553 10.8264 249.322 11.1581 249.031 11.4424C248.754 11.7267 248.417 11.9568 248.02 12.1328C247.637 12.2953 247.228 12.3765 246.792 12.3765C246.369 12.3765 245.972 12.2953 245.602 12.1328C245.232 11.9568 244.909 11.7267 244.631 11.4424C244.354 11.1581 244.129 10.8264 243.957 10.4473C243.799 10.0547 243.719 9.64179 243.719 9.20856C243.719 8.7618 243.799 8.34888 243.957 7.96981C244.129 7.57721 244.354 7.23875 244.631 6.95445C244.909 6.65661 245.232 6.42646 245.602 6.264C245.972 6.088 246.369 6 246.792 6C247.228 6 247.637 6.088 248.02 6.264C248.417 6.42646 248.754 6.65661 249.031 6.95445C249.322 7.23875 249.553 7.57721 249.725 7.96981C249.897 8.34888 249.983 8.7618 249.983 9.20856Z" fill="white"/>
<path d="M263.126 15.0368C264.632 15.0368 266 15.2872 267.228 15.7881C268.47 16.2891 269.528 16.9998 270.4 17.9204C271.285 18.841 271.965 19.9647 272.441 21.2914C272.917 22.6182 273.155 24.1006 273.155 25.7387C273.155 27.3904 272.917 28.8796 272.441 30.2064C271.965 31.5331 271.285 32.6636 270.4 33.5977C269.528 34.5318 268.47 35.2494 267.228 35.7503C266 36.2512 264.632 36.5016 263.126 36.5016C261.606 36.5016 260.225 36.2512 258.983 35.7503C257.741 35.2494 256.677 34.5318 255.792 33.5977C254.92 32.6636 254.24 31.5331 253.751 30.2064C253.275 28.8796 253.037 27.3904 253.037 25.7387C253.037 24.1006 253.275 22.6182 253.751 21.2914C254.24 19.9647 254.92 18.841 255.792 17.9204C256.677 16.9998 257.741 16.2891 258.983 15.7881C260.225 15.2872 261.606 15.0368 263.126 15.0368ZM263.126 32.6432C264.817 32.6432 266.066 32.0611 266.872 30.8968C267.691 29.7325 268.1 28.0267 268.1 25.7794C268.1 23.532 267.691 21.8194 266.872 20.6416C266.066 19.4638 264.817 18.8749 263.126 18.8749C261.408 18.8749 260.133 19.4705 259.3 20.6619C258.481 21.8397 258.071 23.5456 258.071 25.7794C258.071 28.0132 258.481 29.719 259.3 30.8968C260.133 32.0611 261.408 32.6432 263.126 32.6432Z" fill="white"/>
<path d="M281.468 17.9204C281.878 17.5007 282.307 17.1149 282.756 16.7629C283.219 16.3974 283.701 16.0928 284.203 15.8491C284.718 15.5918 285.267 15.3955 285.848 15.2602C286.43 15.1112 287.064 15.0368 287.751 15.0368C288.861 15.0368 289.845 15.2331 290.704 15.6257C291.563 16.0048 292.277 16.5463 292.845 17.2503C293.426 17.9407 293.862 18.7733 294.153 19.7481C294.457 20.7093 294.609 21.772 294.609 22.9363V36.197H289.713V22.9363C289.713 21.6637 289.429 20.6822 288.861 19.9918C288.293 19.2878 287.427 18.9358 286.264 18.9358C285.419 18.9358 284.626 19.1321 283.886 19.5247C283.146 19.9173 282.446 20.4521 281.785 21.129V36.197H276.889V15.3617H279.882C280.517 15.3617 280.933 15.6663 281.131 16.2755L281.468 17.9204Z" fill="white"/>
<path d="M311.672 19.4232C311.54 19.6398 311.401 19.7955 311.256 19.8902C311.11 19.9715 310.925 20.0121 310.701 20.0121C310.463 20.0121 310.205 19.9444 309.928 19.809C309.664 19.6736 309.353 19.5247 308.996 19.3622C308.64 19.1862 308.23 19.0306 307.767 18.8952C307.318 18.7598 306.783 18.6921 306.162 18.6921C305.197 18.6921 304.438 18.9019 303.883 19.3216C303.341 19.7413 303.07 20.2896 303.07 20.9665C303.07 21.4133 303.209 21.7924 303.486 22.1037C303.777 22.4016 304.154 22.6656 304.616 22.8957C305.092 23.1259 305.627 23.3357 306.221 23.5252C306.816 23.7012 307.417 23.8975 308.025 24.1142C308.646 24.3308 309.254 24.5812 309.849 24.8655C310.443 25.1363 310.972 25.4883 311.434 25.9215C311.91 26.3412 312.286 26.8489 312.564 27.4446C312.855 28.0402 313 28.7578 313 29.5971C313 30.599 312.822 31.5263 312.465 32.3793C312.121 33.2186 311.606 33.9497 310.919 34.5724C310.232 35.1817 309.379 35.6623 308.362 36.0143C307.358 36.3527 306.195 36.522 304.874 36.522C304.173 36.522 303.486 36.4543 302.812 36.3189C302.152 36.197 301.511 36.021 300.89 35.7909C300.282 35.5607 299.714 35.29 299.185 34.9786C298.67 34.6672 298.214 34.3288 297.818 33.9632L298.947 32.0543C299.093 31.8242 299.265 31.6482 299.463 31.5263C299.661 31.4045 299.912 31.3436 300.216 31.3436C300.52 31.3436 300.804 31.4316 301.068 31.6076C301.346 31.7836 301.663 31.9731 302.02 32.1762C302.376 32.3793 302.793 32.5688 303.268 32.7448C303.757 32.9208 304.372 33.0088 305.112 33.0088C305.693 33.0088 306.188 32.9411 306.598 32.8057C307.021 32.6568 307.364 32.4673 307.629 32.2371C307.906 32.007 308.104 31.743 308.223 31.4451C308.355 31.1337 308.422 30.8156 308.422 30.4907C308.422 30.0033 308.276 29.6039 307.986 29.2925C307.708 28.9812 307.331 28.7104 306.856 28.4802C306.393 28.2501 305.858 28.047 305.25 27.871C304.656 27.6815 304.041 27.4784 303.407 27.2618C302.786 27.0452 302.172 26.7947 301.564 26.5104C300.969 26.2126 300.434 25.8403 299.958 25.3935C299.496 24.9468 299.119 24.3985 298.829 23.7486C298.551 23.0988 298.412 22.3136 298.412 21.393C298.412 20.5401 298.577 19.7278 298.908 18.9561C299.238 18.1844 299.72 17.5143 300.355 16.9457C301.002 16.3635 301.802 15.9032 302.753 15.5648C303.718 15.2128 304.827 15.0368 306.083 15.0368C307.483 15.0368 308.758 15.2737 309.908 15.7475C311.058 16.2214 312.016 16.8441 312.782 17.6158L311.672 19.4232Z" fill="white"/>
<path fill-rule="evenodd" clip-rule="evenodd" d="M35.6931 0.310877C35.1284 -0.168188 34.2947 -0.0842533 33.8311 0.498352L7.59516 33.4667V1.9758C7.59516 1.22305 7.00161 0.612823 6.26944 0.612823H1.32572C0.593545 0.612823 0 1.22305 0 1.9758V55.637C0 56.3898 0.593544 57 1.32572 57H6.26944C7.00161 57 7.59516 56.3898 7.59516 55.637V45.8191L39.6995 5.47637C40.1632 4.89376 40.0812 4.03311 39.5164 3.55404L35.6931 0.310877Z" fill="#EDAF4F"/>
</svg>
